<svg width="18" height="18" viewBox="0 0 18 18" fill="none" xmlns="http://www.w3.org/2000/svg">
<g clip-path="url(#clip0_1_95)">
<path d="M13.5 12.06C12.93 12.06 12.42 12.285 12.03 12.6375L6.6825 9.52499C6.72 9.35249 6.75 9.17999 6.75 8.99999C6.75 8.81999 6.72 8.64749 6.6825 8.47499L11.97 5.39249C12.375 5.76749 12.9075 5.99999 13.5 5.99999C14.745 5.99999 15.75 4.99499 15.75 3.74999C15.75 2.50499 14.745 1.49999 13.5 1.49999C12.255 1.49999 11.25 2.50499 11.25 3.74999C11.25 3.92999 11.28 4.10249 11.3175 4.27499L6.03 7.35749C5.625 6.98249 5.0925 6.74999 4.5 6.74999C3.255 6.74999 2.25 7.75499 2.25 8.99999C2.25 10.245 3.255 11.25 4.5 11.25C5.0925 11.25 5.625 11.0175 6.03 10.6425L11.37 13.7625C11.3325 13.92 11.31 14.085 11.31 14.25C11.31 15.4575 12.2925 16.44 13.5 16.44C14.7075 16.44 15.69 15.4575 15.69 14.25C15.69 13.0425 14.7075 12.06 13.5 12.06Z" fill="#212529"/>
</g>
<defs>
<clipPath id="clip0_1_95">
<rect width="18" height="18" fill="white"/>
</clipPath>
</defs>
</svg>
