<svg width="28" height="28" viewBox="0 0 28 28" fill="none" xmlns="http://www.w3.org/2000/svg">
<g clip-path="url(#clip0_1_486)">
<path d="M18.6666 14C18.6666 15.2833 19.7166 16.3333 21 16.3333C22.2833 16.3333 23.3333 15.2833 23.3333 14C23.3333 12.7167 22.2833 11.6667 21 11.6667C19.7166 11.6667 18.6666 12.7167 18.6666 14ZM16.3333 14C16.3333 12.7167 15.2833 11.6667 14 11.6667C12.7166 11.6667 11.6666 12.7167 11.6666 14C11.6666 15.2833 12.7166 16.3333 14 16.3333C15.2833 16.3333 16.3333 15.2833 16.3333 14ZM9.33331 14C9.33331 12.7167 8.28331 11.6667 6.99998 11.6667C5.71665 11.6667 4.66665 12.7167 4.66665 14C4.66665 15.2833 5.71665 16.3333 6.99998 16.3333C8.28331 16.3333 9.33331 15.2833 9.33331 14Z" fill="#212529"/>
</g>
<defs>
<clipPath id="clip0_1_486">
<rect width="28" height="28" fill="white" transform="translate(28) rotate(90)"/>
</clipPath>
</defs>
</svg>
