<svg width="20" height="20" viewBox="0 0 20 20" fill="none" xmlns="http://www.w3.org/2000/svg">
<g clip-path="url(#clip0_1_1068)">
<path d="M9.99999 1.66675C6.77499 1.66675 4.16666 4.27508 4.16666 7.50008C4.16666 11.8751 9.99999 18.3334 9.99999 18.3334C9.99999 18.3334 15.8333 11.8751 15.8333 7.50008C15.8333 4.27508 13.225 1.66675 9.99999 1.66675ZM5.83332 7.50008C5.83332 5.20008 7.69999 3.33342 9.99999 3.33342C12.3 3.33342 14.1667 5.20008 14.1667 7.50008C14.1667 9.90008 11.7667 13.4918 9.99999 15.7334C8.26666 13.5084 5.83332 9.87508 5.83332 7.50008Z" fill="black"/>
<path d="M9.99999 9.58341C11.1506 9.58341 12.0833 8.65067 12.0833 7.50008C12.0833 6.34949 11.1506 5.41675 9.99999 5.41675C8.8494 5.41675 7.91666 6.34949 7.91666 7.50008C7.91666 8.65067 8.8494 9.58341 9.99999 9.58341Z" fill="black"/>
</g>
<defs>
<clipPath id="clip0_1_1068">
<rect width="20" height="20" fill="white"/>
</clipPath>
</defs>
</svg>
