<svg width="16" height="16" viewBox="0 0 16 16" fill="none" xmlns="http://www.w3.org/2000/svg">
<g clip-path="url(#clip0_1_720)">
<path d="M7.99998 1.33334C5.41998 1.33334 3.33331 3.42 3.33331 6C3.33331 9.5 7.99998 14.6667 7.99998 14.6667C7.99998 14.6667 12.6666 9.5 12.6666 6C12.6666 3.42 10.58 1.33334 7.99998 1.33334ZM4.66665 6C4.66665 4.16 6.15998 2.66667 7.99998 2.66667C9.83998 2.66667 11.3333 4.16 11.3333 6C11.3333 7.92 9.41331 10.7933 7.99998 12.5867C6.61331 10.8067 4.66665 7.9 4.66665 6Z" fill="#495057"/>
<path d="M7.99998 7.66667C8.92045 7.66667 9.66665 6.92048 9.66665 6C9.66665 5.07953 8.92045 4.33334 7.99998 4.33334C7.07951 4.33334 6.33331 5.07953 6.33331 6C6.33331 6.92048 7.07951 7.66667 7.99998 7.66667Z" fill="#495057"/>
</g>
<defs>
<clipPath id="clip0_1_720">
<rect width="16" height="16" fill="white"/>
</clipPath>
</defs>
</svg>
