<svg width="16" height="16" viewBox="0 0 16 16" fill="none" xmlns="http://www.w3.org/2000/svg">
<g clip-path="url(#clip0_1_254)">
<path d="M8.00004 1.33334C5.42004 1.33334 3.33337 3.42 3.33337 6C3.33337 9.5 8.00004 14.6667 8.00004 14.6667C8.00004 14.6667 12.6667 9.5 12.6667 6C12.6667 3.42 10.58 1.33334 8.00004 1.33334ZM4.66671 6C4.66671 4.16 6.16004 2.66667 8.00004 2.66667C9.84004 2.66667 11.3334 4.16 11.3334 6C11.3334 7.92 9.41338 10.7933 8.00004 12.5867C6.61337 10.8067 4.66671 7.9 4.66671 6Z" fill="#495057"/>
<path d="M8.00004 7.66667C8.92052 7.66667 9.66671 6.92048 9.66671 6C9.66671 5.07953 8.92052 4.33334 8.00004 4.33334C7.07957 4.33334 6.33337 5.07953 6.33337 6C6.33337 6.92048 7.07957 7.66667 8.00004 7.66667Z" fill="#495057"/>
</g>
<defs>
<clipPath id="clip0_1_254">
<rect width="16" height="16" fill="white"/>
</clipPath>
</defs>
</svg>
