<svg width="16" height="16" viewBox="0 0 16 16" fill="none" xmlns="http://www.w3.org/2000/svg">
<g clip-path="url(#clip0_1_729)">
<path d="M9.33331 4.00002V2.66668H6.66665V4.00002H9.33331ZM2.66665 5.33335V12.6667H13.3333V5.33335H2.66665ZM13.3333 4.00002C14.0733 4.00002 14.6666 4.59335 14.6666 5.33335V12.6667C14.6666 13.4067 14.0733 14 13.3333 14H2.66665C1.92665 14 1.33331 13.4067 1.33331 12.6667L1.33998 5.33335C1.33998 4.59335 1.92665 4.00002 2.66665 4.00002H5.33331V2.66668C5.33331 1.92668 5.92665 1.33335 6.66665 1.33335H9.33331C10.0733 1.33335 10.6666 1.92668 10.6666 2.66668V4.00002H13.3333Z" fill="#495057"/>
</g>
<defs>
<clipPath id="clip0_1_729">
<rect width="16" height="16" fill="white"/>
</clipPath>
</defs>
</svg>
